{"extensionsUsed" : ["KHR_materials_clearcoat", "KHR_texture_transform"], "extensionsRequired" : ["KHR_texture_transform"], "accessors" : [{"bufferView" : 0, "byteOffset" : 0, "componentType" : 5123, "count" : 20685, "type" : "SCALAR", "max" : [17658], "min" : [0]}, {"bufferView" : 1, "byteOffset" : 0, "componentType" : 5126, "count" : 17659, "type" : "VEC3", "max" : [2.340604066848755, -0.3535130023956299, -0.15159699320793152], "min" : [-0.3645560145378113, -0.9711599946022034, -0.5480430126190186], "name" : "POSITION"}, {"bufferView" : 1, "byteOffset" : 12, "componentType" : 5126, "count" : 17659, "type" : "VEC3", "max" : [0.9991387128829956, 1.0000026226043701, 1.0000044107437134], "min" : [-0.9991387128829956, -1.0000044107437134, -1.0000044107437134], "name" : "NORMAL"}, {"bufferView" : 1, "byteOffset" : 24, "componentType" : 5126, "count" : 17659, "type" : "VEC2", "max" : [249.2513885498047, 1], "min" : [-30, -248.74688720703125], "name" : "TEXCOORD_0"}], "asset" : {"generator" : "Aspose.3D 23.11.1", "version" : "2.0"}, "buffers" : [{"uri" : "data:application/octet-stream;base64,", "byteLength" : 703300}], "bufferViews" : [{"buffer" : 0, "byteOffset" : 0, "byteLength" : 41372, "target" : 34963}, {"buffer" : 0, "byteOffset" : 41376, "byteLength" : 661920, "byteStride" : 32, "target" : 34962}], "images" : [{"uri" : "data:image/png;base64,"}, {"uri" : "data:image/png;base64,"}], "materials" : [{"name" : "Opaque(202,209,238)", "extensions" : {"KHR_materials_clearcoat" : {"clearcoatFactor" : 0.196363627910614, "clearcoatRoughnessFactor" : 0}}, "pbrMetallicRoughness" : {"baseColorFactor" : [1, 1, 1, 1], "baseColorTexture" : {"index" : 1, "texCoord" : 0}, "metallicFactor" : 1, "roughnessFactor" : 0.7454545497894287}, "normalTexture" : {"index" : 0, "texCoord" : 0, "scale" : 1}, "emissiveFactor" : [0, 0, 0], "alphaMode" : "OPAQUE", "doubleSided" : true}], "meshes" : [{"primitives" : [{"attributes" : {"POSITION" : 1, "NORMAL" : 2, "TEXCOORD_0" : 3}, "indices" : 0, "material" : 0, "mode" : 4}]}], "nodes" : [{"matrix" : [1, 0, 0, 0, 0, -3.029462689596585E-07, 0.9999999657714298, 0, 0, -0.9999999657714298, -3.029462689596585E-07, 0, -0.774796724319458, -0.15401804447174072, 0.6576327681541443, 1], "mesh" : 0, "name" : "experiment on recent v0"}], "samplers" : [{"magFilter" : 9729, "minFilter" : 9987, "wrapS" : 10497, "wrapT" : 10497}, {"magFilter" : 9729, "minFilter" : 9987, "wrapS" : 10497, "wrapT" : 10497}], "scene" : 0, "scenes" : [{"nodes" : [0]}], "textures" : [{"sampler" : 0, "source" : 0, "name" : ""}, {"sampler" : 1, "source" : 1, "name" : ""}]}